<svg xmlns="http://www.w3.org/2000/svg" viewBox="0 0 100 100">
  <!-- Heart-shaped apple body -->
  <path d="M50 85 C50 85 15 62 15 38 C15 25 25 18 35 18 C42 18 47 22 50 26 C53 22 58 18 65 18 C75 18 85 25 85 38 C85 62 50 85 50 85Z" fill="#E53535"/>
  <!-- Shine highlight -->
  <ellipse cx="36" cy="30" rx="7" ry="5" fill="rgba(255,255,255,0.35)" transform="rotate(-20 36 30)"/>
  <!-- Stem -->
  <path d="M50 18 Q54 8 62 6" stroke="#5D4037" stroke-width="3" stroke-linecap="round" fill="none"/>
  <!-- Leaf -->
  <path d="M55 12 Q66 4 68 14 Q60 16 55 12Z" fill="#43A047"/>
</svg>
